<svg width="166" height="37" viewBox="0 0 166 37" fill="none" xmlns="http://www.w3.org/2000/svg">
<path fill-rule="evenodd" clip-rule="evenodd" d="M21.0662 3.02928L20.5328 2.50007L20.0016 3.03135L15.5701 7.46284L11.2952 3.18799L10.764 2.65672L10.2306 3.1859L0.22302 13.1153L0 13.3366V13.6507V23.4238V23.7345L0.218837 23.955L10.1482 33.9626L10.6816 34.5002L11.217 33.9647L15.6443 29.5374L20.2321 34.1952L20.7307 33.7041L21.1485 34.1187L31.1561 24.033L31.375 23.8124V23.5017V13.5723V13.2581L31.152 13.0369L21.0662 3.02928ZM20.6548 32.4746L29.556 23.5038L21.3674 15.3151V23.502V23.8144L21.1464 24.0353L16.7111 28.4707L20.6548 32.4746ZM21.3674 13.1817V11.6834L21.3533 11.6974L21.3036 5.39002L29.8664 13.8865V21.6807L21.3674 13.1817ZM19.8563 13.1827L11.3598 21.6133V13.8065L19.7948 5.37151L19.8563 13.1827ZM9.85123 21.7495V13.4941V13.1817L10.0722 12.9608L14.5034 8.52955L10.7598 4.78598L1.82096 13.655L9.85123 21.7495ZM1.50857 15.4821L9.77791 23.8176L9.9 31.5706L1.50857 23.1131V15.4821ZM15.115 27.9333L11.4098 31.6385L11.2866 23.8112L19.8588 15.3054V23.1895L15.115 27.9333Z" fill="#C8C9F9"/>
<path d="M49.303 26.312C48.419 26.312 47.6217 26.1387 46.911 25.792C46.2177 25.4453 45.6717 24.9687 45.273 24.362C44.8743 23.7553 44.675 23.0533 44.675 22.256C44.675 21.1293 45.0737 20.2193 45.871 19.526C46.6857 18.8153 47.8037 18.408 49.225 18.304L54.217 17.94V19.76L49.667 20.098C48.6617 20.1673 47.9077 20.384 47.405 20.748C46.9197 21.112 46.677 21.6147 46.677 22.256C46.677 22.88 46.9283 23.4 47.431 23.816C47.951 24.2147 48.6183 24.414 49.433 24.414C50.2477 24.414 50.9843 24.232 51.643 23.868C52.319 23.4867 52.8477 22.984 53.229 22.36C53.6277 21.7187 53.827 21.008 53.827 20.228V18.122C53.827 17.082 53.5063 16.2327 52.865 15.574C52.241 14.898 51.3917 14.56 50.317 14.56C49.5023 14.56 48.8003 14.7593 48.211 15.158C47.6217 15.5393 47.2057 16.1027 46.963 16.848H46.677L44.961 16.224C45.377 15.0627 46.053 14.1787 46.989 13.572C47.925 12.9653 49.043 12.662 50.343 12.662C52.0937 12.662 53.437 13.1907 54.373 14.248C55.309 15.288 55.777 16.77 55.777 18.694V26H53.879V22.23L54.555 22.724C54.347 23.4173 53.983 24.0413 53.463 24.596C52.943 25.1333 52.3277 25.558 51.617 25.87C50.9063 26.1647 50.135 26.312 49.303 26.312ZM65.3448 26.312C64.1141 26.312 63.0221 26.026 62.0688 25.454C61.1155 24.882 60.3701 24.0847 59.8328 23.062C59.2955 22.0393 59.0268 20.852 59.0268 19.5C59.0268 18.148 59.2868 16.9607 59.8068 15.938C60.3441 14.9153 61.0808 14.118 62.0168 13.546C62.9701 12.974 64.0621 12.688 65.2928 12.688C66.5061 12.688 67.5635 12.9827 68.4648 13.572C69.3835 14.144 70.1028 14.9587 70.6228 16.016C71.1428 17.056 71.4028 18.2693 71.4028 19.656V19.89L71.0128 20.254H60.1708V18.356H70.2588L69.4008 18.72C69.3315 17.8533 69.1061 17.1167 68.7248 16.51C68.3435 15.886 67.8581 15.4093 67.2688 15.08C66.6795 14.7507 66.0208 14.586 65.2928 14.586C64.4955 14.586 63.7675 14.7853 63.1088 15.184C62.4501 15.5653 61.9301 16.1113 61.5488 16.822C61.1675 17.5327 60.9768 18.356 60.9768 19.292V19.63C60.9768 20.566 61.1588 21.398 61.5228 22.126C61.9041 22.8367 62.4241 23.4 63.0828 23.816C63.7415 24.2147 64.4955 24.414 65.3448 24.414C66.1941 24.414 66.9221 24.2147 67.5288 23.816C68.1355 23.4173 68.6121 22.8713 68.9588 22.178H69.2448L70.8828 22.906C70.3975 23.946 69.6695 24.778 68.6988 25.402C67.7455 26.0087 66.6275 26.312 65.3448 26.312ZM80.3901 26.312C79.1421 26.312 78.0327 26.026 77.0621 25.454C76.1087 24.882 75.3547 24.0847 74.8001 23.062C74.2627 22.0393 73.9941 20.852 73.9941 19.5C73.9941 18.148 74.2627 16.9607 74.8001 15.938C75.3547 14.9153 76.1087 14.118 77.0621 13.546C78.0327 12.974 79.1421 12.688 80.3901 12.688C81.6554 12.688 82.7647 12.974 83.7181 13.546C84.6714 14.118 85.4167 14.9153 85.9541 15.938C86.5087 16.9607 86.7861 18.148 86.7861 19.5C86.7861 20.852 86.5087 22.0393 85.9541 23.062C85.4167 24.0847 84.6714 24.882 83.7181 25.454C82.7647 26.026 81.6554 26.312 80.3901 26.312ZM80.3901 24.414C81.2567 24.414 82.0194 24.2147 82.6781 23.816C83.3541 23.4 83.8827 22.828 84.2641 22.1C84.6454 21.3547 84.8361 20.488 84.8361 19.5C84.8361 18.4947 84.6454 17.628 84.2641 16.9C83.8827 16.172 83.3541 15.6087 82.6781 15.21C82.0194 14.794 81.2567 14.586 80.3901 14.586C79.5234 14.586 78.7521 14.794 78.0761 15.21C77.4174 15.6087 76.8974 16.172 76.5161 16.9C76.1347 17.628 75.9441 18.4947 75.9441 19.5C75.9441 20.488 76.1347 21.3547 76.5161 22.1C76.8974 22.828 77.4174 23.4 78.0761 23.816C78.7521 24.2147 79.5234 24.414 80.3901 24.414ZM90.173 26V13H92.071V16.77L91.499 16.276C91.7243 15.548 92.097 14.9153 92.617 14.378C93.137 13.8407 93.7436 13.4247 94.437 13.13C95.1476 12.8353 95.9016 12.688 96.699 12.688C97.635 12.688 98.467 12.8873 99.195 13.286C99.923 13.6847 100.486 14.274 100.885 15.054C101.301 15.834 101.509 16.8047 101.509 17.966V26H99.559V18.408C99.559 17.42 99.4116 16.6573 99.117 16.12C98.8223 15.5653 98.4236 15.1753 97.921 14.95C97.4356 14.7247 96.881 14.612 96.257 14.612C95.5463 14.612 94.8703 14.7853 94.229 15.132C93.605 15.4787 93.0936 15.9813 92.695 16.64C92.3136 17.2813 92.123 18.0613 92.123 18.98V26H90.173ZM112.982 26L103.856 13.208V13H106.066L115.192 25.792V26H112.982ZM103.856 26V25.792L109.004 18.616L110.2 20.124L106.066 26H103.856ZM110.356 20.176L109.16 18.616L113.06 13H115.192V13.208L110.356 20.176ZM117.67 26V13H119.62V26H117.67ZM118.658 10.452C118.259 10.452 117.921 10.3133 117.644 10.036C117.367 9.75867 117.228 9.42067 117.228 9.022C117.228 8.62333 117.367 8.28533 117.644 8.008C117.921 7.73067 118.259 7.592 118.658 7.592C119.057 7.592 119.395 7.73067 119.672 8.008C119.949 8.28533 120.088 8.62333 120.088 9.022C120.088 9.42067 119.949 9.75867 119.672 10.036C119.395 10.3133 119.057 10.452 118.658 10.452ZM129.132 26.312C127.988 26.312 126.948 26.0173 126.012 25.428C125.093 24.8387 124.357 24.0327 123.802 23.01C123.265 21.9873 122.996 20.8173 122.996 19.5C122.996 18.1827 123.265 17.0127 123.802 15.99C124.357 14.9673 125.093 14.1613 126.012 13.572C126.948 12.9827 127.988 12.688 129.132 12.688C130.016 12.688 130.831 12.87 131.576 13.234C132.321 13.5807 132.963 14.0747 133.5 14.716C134.037 15.34 134.436 16.0853 134.696 16.952V22.048C134.436 22.8973 134.037 23.6427 133.5 24.284C132.963 24.9253 132.321 25.428 131.576 25.792C130.831 26.1387 130.016 26.312 129.132 26.312ZM135.632 31.2H133.682V21.138L134.046 19.5L133.734 17.862V13H135.632V31.2ZM129.21 24.414C130.077 24.414 130.839 24.206 131.498 23.79C132.174 23.374 132.703 22.802 133.084 22.074C133.483 21.3287 133.682 20.4707 133.682 19.5C133.682 18.5293 133.483 17.68 133.084 16.952C132.703 16.2067 132.174 15.626 131.498 15.21C130.839 14.794 130.077 14.586 129.21 14.586C128.395 14.586 127.659 14.794 127 15.21C126.359 15.626 125.856 16.2067 125.492 16.952C125.128 17.68 124.946 18.5293 124.946 19.5C124.946 20.4707 125.128 21.3287 125.492 22.074C125.856 22.802 126.359 23.374 127 23.79C127.659 24.206 128.395 24.414 129.21 24.414ZM141.032 26.208C140.599 26.208 140.235 26.0693 139.94 25.792C139.663 25.4973 139.524 25.1333 139.524 24.7C139.524 24.2667 139.663 23.9027 139.94 23.608C140.235 23.3133 140.599 23.166 141.032 23.166C141.466 23.166 141.821 23.3133 142.098 23.608C142.393 23.9027 142.54 24.2667 142.54 24.7C142.54 25.1333 142.393 25.4973 142.098 25.792C141.821 26.0693 141.466 26.208 141.032 26.208ZM150.557 26.312C149.673 26.312 148.875 26.1387 148.165 25.792C147.471 25.4453 146.925 24.9687 146.527 24.362C146.128 23.7553 145.929 23.0533 145.929 22.256C145.929 21.1293 146.327 20.2193 147.125 19.526C147.939 18.8153 149.057 18.408 150.479 18.304L155.471 17.94V19.76L150.921 20.098C149.915 20.1673 149.161 20.384 148.659 20.748C148.173 21.112 147.931 21.6147 147.931 22.256C147.931 22.88 148.182 23.4 148.685 23.816C149.205 24.2147 149.872 24.414 150.687 24.414C151.501 24.414 152.238 24.232 152.897 23.868C153.573 23.4867 154.101 22.984 154.483 22.36C154.881 21.7187 155.081 21.008 155.081 20.228V18.122C155.081 17.082 154.76 16.2327 154.119 15.574C153.495 14.898 152.645 14.56 151.571 14.56C150.756 14.56 150.054 14.7593 149.465 15.158C148.875 15.5393 148.459 16.1027 148.217 16.848H147.931L146.215 16.224C146.631 15.0627 147.307 14.1787 148.243 13.572C149.179 12.9653 150.297 12.662 151.597 12.662C153.347 12.662 154.691 13.1907 155.627 14.248C156.563 15.288 157.031 16.77 157.031 18.694V26H155.133V22.23L155.809 22.724C155.601 23.4173 155.237 24.0413 154.717 24.596C154.197 25.1333 153.581 25.558 152.871 25.87C152.16 26.1647 151.389 26.312 150.557 26.312ZM161.061 26V13H163.011V26H161.061ZM162.049 10.452C161.65 10.452 161.312 10.3133 161.035 10.036C160.757 9.75867 160.619 9.42067 160.619 9.022C160.619 8.62333 160.757 8.28533 161.035 8.008C161.312 7.73067 161.65 7.592 162.049 7.592C162.447 7.592 162.785 7.73067 163.063 8.008C163.34 8.28533 163.479 8.62333 163.479 9.022C163.479 9.42067 163.34 9.75867 163.063 10.036C162.785 10.3133 162.447 10.452 162.049 10.452Z" fill="#FAFAFB"/>
</svg>
