<svg width="164" height="37" viewBox="0 0 164 37" fill="none" xmlns="http://www.w3.org/2000/svg">
<path fill-rule="evenodd" clip-rule="evenodd" d="M21.0662 3.02928L20.5328 2.50007L20.0016 3.03135L15.5701 7.46284L11.2952 3.18799L10.764 2.65672L10.2306 3.1859L0.22302 13.1153L0 13.3366V13.6507V23.4238V23.7345L0.218837 23.955L10.1482 33.9626L10.6816 34.5002L11.217 33.9647L15.6443 29.5374L20.2321 34.1952L20.7307 33.7041L21.1485 34.1187L31.1561 24.033L31.375 23.8124V23.5017V13.5723V13.2581L31.152 13.0369L21.0662 3.02928ZM20.6548 32.4746L29.556 23.5038L21.3674 15.3151V23.502V23.8144L21.1464 24.0353L16.7111 28.4707L20.6548 32.4746ZM21.3674 13.1817V11.6834L21.3533 11.6974L21.3036 5.39002L29.8664 13.8865V21.6807L21.3674 13.1817ZM19.8563 13.1827L11.3598 21.6133V13.8065L19.7948 5.37151L19.8563 13.1827ZM9.85123 21.7495V13.4941V13.1817L10.0722 12.9608L14.5034 8.52955L10.7598 4.78598L1.82096 13.655L9.85123 21.7495ZM1.50857 15.4821L9.77791 23.8176L9.9 31.5706L1.50857 23.1131V15.4821ZM15.115 27.9333L11.4098 31.6385L11.2866 23.8112L19.8588 15.3054V23.1895L15.115 27.9333Z" fill="#7665E8"/>
<path d="M47.303 26.312C46.419 26.312 45.6217 26.1387 44.911 25.792C44.2177 25.4453 43.6717 24.9687 43.273 24.362C42.8743 23.7553 42.675 23.0533 42.675 22.256C42.675 21.1293 43.0737 20.2193 43.871 19.526C44.6857 18.8153 45.8037 18.408 47.225 18.304L52.217 17.94V19.76L47.667 20.098C46.6617 20.1673 45.9077 20.384 45.405 20.748C44.9197 21.112 44.677 21.6147 44.677 22.256C44.677 22.88 44.9283 23.4 45.431 23.816C45.951 24.2147 46.6183 24.414 47.433 24.414C48.2477 24.414 48.9843 24.232 49.643 23.868C50.319 23.4867 50.8477 22.984 51.229 22.36C51.6277 21.7187 51.827 21.008 51.827 20.228V18.122C51.827 17.082 51.5063 16.2327 50.865 15.574C50.241 14.898 49.3917 14.56 48.317 14.56C47.5023 14.56 46.8003 14.7593 46.211 15.158C45.6217 15.5393 45.2057 16.1027 44.963 16.848H44.677L42.961 16.224C43.377 15.0627 44.053 14.1787 44.989 13.572C45.925 12.9653 47.043 12.662 48.343 12.662C50.0937 12.662 51.437 13.1907 52.373 14.248C53.309 15.288 53.777 16.77 53.777 18.694V26H51.879V22.23L52.555 22.724C52.347 23.4173 51.983 24.0413 51.463 24.596C50.943 25.1333 50.3277 25.558 49.617 25.87C48.9063 26.1647 48.135 26.312 47.303 26.312ZM63.3448 26.312C62.1141 26.312 61.0221 26.026 60.0688 25.454C59.1155 24.882 58.3701 24.0847 57.8328 23.062C57.2955 22.0393 57.0268 20.852 57.0268 19.5C57.0268 18.148 57.2868 16.9607 57.8068 15.938C58.3441 14.9153 59.0808 14.118 60.0168 13.546C60.9701 12.974 62.0621 12.688 63.2928 12.688C64.5061 12.688 65.5635 12.9827 66.4648 13.572C67.3835 14.144 68.1028 14.9587 68.6228 16.016C69.1428 17.056 69.4028 18.2693 69.4028 19.656V19.89L69.0128 20.254H58.1708V18.356H68.2588L67.4008 18.72C67.3315 17.8533 67.1061 17.1167 66.7248 16.51C66.3435 15.886 65.8581 15.4093 65.2688 15.08C64.6795 14.7507 64.0208 14.586 63.2928 14.586C62.4955 14.586 61.7675 14.7853 61.1088 15.184C60.4501 15.5653 59.9301 16.1113 59.5488 16.822C59.1675 17.5327 58.9768 18.356 58.9768 19.292V19.63C58.9768 20.566 59.1588 21.398 59.5228 22.126C59.9041 22.8367 60.4241 23.4 61.0828 23.816C61.7415 24.2147 62.4955 24.414 63.3448 24.414C64.1941 24.414 64.9221 24.2147 65.5288 23.816C66.1355 23.4173 66.6121 22.8713 66.9588 22.178H67.2448L68.8828 22.906C68.3975 23.946 67.6695 24.778 66.6988 25.402C65.7455 26.0087 64.6275 26.312 63.3448 26.312ZM78.3901 26.312C77.1421 26.312 76.0327 26.026 75.0621 25.454C74.1087 24.882 73.3547 24.0847 72.8001 23.062C72.2627 22.0393 71.9941 20.852 71.9941 19.5C71.9941 18.148 72.2627 16.9607 72.8001 15.938C73.3547 14.9153 74.1087 14.118 75.0621 13.546C76.0327 12.974 77.1421 12.688 78.3901 12.688C79.6554 12.688 80.7647 12.974 81.7181 13.546C82.6714 14.118 83.4167 14.9153 83.9541 15.938C84.5087 16.9607 84.7861 18.148 84.7861 19.5C84.7861 20.852 84.5087 22.0393 83.9541 23.062C83.4167 24.0847 82.6714 24.882 81.7181 25.454C80.7647 26.026 79.6554 26.312 78.3901 26.312ZM78.3901 24.414C79.2567 24.414 80.0194 24.2147 80.6781 23.816C81.3541 23.4 81.8827 22.828 82.2641 22.1C82.6454 21.3547 82.8361 20.488 82.8361 19.5C82.8361 18.4947 82.6454 17.628 82.2641 16.9C81.8827 16.172 81.3541 15.6087 80.6781 15.21C80.0194 14.794 79.2567 14.586 78.3901 14.586C77.5234 14.586 76.7521 14.794 76.0761 15.21C75.4174 15.6087 74.8974 16.172 74.5161 16.9C74.1347 17.628 73.9441 18.4947 73.9441 19.5C73.9441 20.488 74.1347 21.3547 74.5161 22.1C74.8974 22.828 75.4174 23.4 76.0761 23.816C76.7521 24.2147 77.5234 24.414 78.3901 24.414ZM88.173 26V13H90.071V16.77L89.499 16.276C89.7243 15.548 90.097 14.9153 90.617 14.378C91.137 13.8407 91.7436 13.4247 92.437 13.13C93.1476 12.8353 93.9016 12.688 94.699 12.688C95.635 12.688 96.467 12.8873 97.195 13.286C97.923 13.6847 98.4863 14.274 98.885 15.054C99.301 15.834 99.509 16.8047 99.509 17.966V26H97.559V18.408C97.559 17.42 97.4116 16.6573 97.117 16.12C96.8223 15.5653 96.4236 15.1753 95.921 14.95C95.4356 14.7247 94.881 14.612 94.257 14.612C93.5463 14.612 92.8703 14.7853 92.229 15.132C91.605 15.4787 91.0936 15.9813 90.695 16.64C90.3136 17.2813 90.123 18.0613 90.123 18.98V26H88.173ZM110.982 26L101.856 13.208V13H104.066L113.192 25.792V26H110.982ZM101.856 26V25.792L107.004 18.616L108.2 20.124L104.066 26H101.856ZM108.356 20.176L107.16 18.616L111.06 13H113.192V13.208L108.356 20.176ZM115.67 26V13H117.62V26H115.67ZM116.658 10.452C116.259 10.452 115.921 10.3133 115.644 10.036C115.367 9.75867 115.228 9.42067 115.228 9.022C115.228 8.62333 115.367 8.28533 115.644 8.008C115.921 7.73067 116.259 7.592 116.658 7.592C117.057 7.592 117.395 7.73067 117.672 8.008C117.949 8.28533 118.088 8.62333 118.088 9.022C118.088 9.42067 117.949 9.75867 117.672 10.036C117.395 10.3133 117.057 10.452 116.658 10.452ZM127.132 26.312C125.988 26.312 124.948 26.0173 124.012 25.428C123.093 24.8387 122.357 24.0327 121.802 23.01C121.265 21.9873 120.996 20.8173 120.996 19.5C120.996 18.1827 121.265 17.0127 121.802 15.99C122.357 14.9673 123.093 14.1613 124.012 13.572C124.948 12.9827 125.988 12.688 127.132 12.688C128.016 12.688 128.831 12.87 129.576 13.234C130.321 13.5807 130.963 14.0747 131.5 14.716C132.037 15.34 132.436 16.0853 132.696 16.952V22.048C132.436 22.8973 132.037 23.6427 131.5 24.284C130.963 24.9253 130.321 25.428 129.576 25.792C128.831 26.1387 128.016 26.312 127.132 26.312ZM133.632 31.2H131.682V21.138L132.046 19.5L131.734 17.862V13H133.632V31.2ZM127.21 24.414C128.077 24.414 128.839 24.206 129.498 23.79C130.174 23.374 130.703 22.802 131.084 22.074C131.483 21.3287 131.682 20.4707 131.682 19.5C131.682 18.5293 131.483 17.68 131.084 16.952C130.703 16.2067 130.174 15.626 129.498 15.21C128.839 14.794 128.077 14.586 127.21 14.586C126.395 14.586 125.659 14.794 125 15.21C124.359 15.626 123.856 16.2067 123.492 16.952C123.128 17.68 122.946 18.5293 122.946 19.5C122.946 20.4707 123.128 21.3287 123.492 22.074C123.856 22.802 124.359 23.374 125 23.79C125.659 24.206 126.395 24.414 127.21 24.414ZM139.032 26.208C138.599 26.208 138.235 26.0693 137.94 25.792C137.663 25.4973 137.524 25.1333 137.524 24.7C137.524 24.2667 137.663 23.9027 137.94 23.608C138.235 23.3133 138.599 23.166 139.032 23.166C139.466 23.166 139.821 23.3133 140.098 23.608C140.393 23.9027 140.54 24.2667 140.54 24.7C140.54 25.1333 140.393 25.4973 140.098 25.792C139.821 26.0693 139.466 26.208 139.032 26.208ZM148.557 26.312C147.673 26.312 146.875 26.1387 146.165 25.792C145.471 25.4453 144.925 24.9687 144.527 24.362C144.128 23.7553 143.929 23.0533 143.929 22.256C143.929 21.1293 144.327 20.2193 145.125 19.526C145.939 18.8153 147.057 18.408 148.479 18.304L153.471 17.94V19.76L148.921 20.098C147.915 20.1673 147.161 20.384 146.659 20.748C146.173 21.112 145.931 21.6147 145.931 22.256C145.931 22.88 146.182 23.4 146.685 23.816C147.205 24.2147 147.872 24.414 148.687 24.414C149.501 24.414 150.238 24.232 150.897 23.868C151.573 23.4867 152.101 22.984 152.483 22.36C152.881 21.7187 153.081 21.008 153.081 20.228V18.122C153.081 17.082 152.76 16.2327 152.119 15.574C151.495 14.898 150.645 14.56 149.571 14.56C148.756 14.56 148.054 14.7593 147.465 15.158C146.875 15.5393 146.459 16.1027 146.217 16.848H145.931L144.215 16.224C144.631 15.0627 145.307 14.1787 146.243 13.572C147.179 12.9653 148.297 12.662 149.597 12.662C151.347 12.662 152.691 13.1907 153.627 14.248C154.563 15.288 155.031 16.77 155.031 18.694V26H153.133V22.23L153.809 22.724C153.601 23.4173 153.237 24.0413 152.717 24.596C152.197 25.1333 151.581 25.558 150.871 25.87C150.16 26.1647 149.389 26.312 148.557 26.312ZM159.061 26V13H161.011V26H159.061ZM160.049 10.452C159.65 10.452 159.312 10.3133 159.035 10.036C158.757 9.75867 158.619 9.42067 158.619 9.022C158.619 8.62333 158.757 8.28533 159.035 8.008C159.312 7.73067 159.65 7.592 160.049 7.592C160.447 7.592 160.785 7.73067 161.063 8.008C161.34 8.28533 161.479 8.62333 161.479 9.022C161.479 9.42067 161.34 9.75867 161.063 10.036C160.785 10.3133 160.447 10.452 160.049 10.452Z" fill="#412BAC"/>
</svg>
